<mxfile host="app.diagrams.net" modified="2021-03-08T03:42:11.851Z" agent="5.0 (Windows NT 10.0; Win64; x64) AppleWebKit/537.36 (KHTML, like Gecko) Chrome/89.0.4389.72 Safari/537.36 Edg/89.0.774.45" etag="LR9F0o_gsFS99jt7Xla1" version="14.4.4" type="github">
  <diagram id="5aN20TkIpAYFd9l0oaaY" name="Page-1">
    <mxGraphModel dx="813" dy="454" grid="1" gridSize="10" guides="1" tooltips="1" connect="1" arrows="1" fold="1" page="1" pageScale="1" pageWidth="850" pageHeight="1100" math="0" shadow="0">
      <root>
        <mxCell id="0" />
        <mxCell id="1" parent="0" />
        <mxCell id="0h4L2-X7NALGhk6wRx9c-1" style="edgeStyle=orthogonalEdgeStyle;rounded=0;orthogonalLoop=1;jettySize=auto;html=1;entryX=0.086;entryY=1.006;entryDx=0;entryDy=0;entryPerimeter=0;" edge="1" parent="1" source="0h4L2-X7NALGhk6wRx9c-2" target="0h4L2-X7NALGhk6wRx9c-63">
          <mxGeometry relative="1" as="geometry">
            <mxPoint x="160" y="685" as="targetPoint" />
          </mxGeometry>
        </mxCell>
        <mxCell id="0h4L2-X7NALGhk6wRx9c-2" value="&lt;b&gt;word_1&lt;/b&gt;" style="rounded=0;whiteSpace=wrap;html=1;strokeWidth=2;fillColor=#fff2cc;strokeColor=#d6b656;" vertex="1" parent="1">
          <mxGeometry x="133" y="745" width="54" height="30" as="geometry" />
        </mxCell>
        <mxCell id="0h4L2-X7NALGhk6wRx9c-3" style="edgeStyle=orthogonalEdgeStyle;rounded=0;orthogonalLoop=1;jettySize=auto;html=1;entryX=0.361;entryY=0.994;entryDx=0;entryDy=0;entryPerimeter=0;" edge="1" parent="1" source="0h4L2-X7NALGhk6wRx9c-4" target="0h4L2-X7NALGhk6wRx9c-63">
          <mxGeometry relative="1" as="geometry">
            <mxPoint x="256" y="685" as="targetPoint" />
          </mxGeometry>
        </mxCell>
        <mxCell id="0h4L2-X7NALGhk6wRx9c-4" value="&lt;b&gt;word_2&lt;/b&gt;" style="rounded=0;whiteSpace=wrap;html=1;strokeWidth=2;fillColor=#fff2cc;strokeColor=#d6b656;" vertex="1" parent="1">
          <mxGeometry x="229" y="745" width="54" height="30" as="geometry" />
        </mxCell>
        <mxCell id="0h4L2-X7NALGhk6wRx9c-5" style="edgeStyle=orthogonalEdgeStyle;rounded=0;orthogonalLoop=1;jettySize=auto;html=1;entryX=0.633;entryY=0.994;entryDx=0;entryDy=0;entryPerimeter=0;" edge="1" parent="1" source="0h4L2-X7NALGhk6wRx9c-6" target="0h4L2-X7NALGhk6wRx9c-63">
          <mxGeometry relative="1" as="geometry">
            <mxPoint x="352" y="685" as="targetPoint" />
          </mxGeometry>
        </mxCell>
        <mxCell id="0h4L2-X7NALGhk6wRx9c-6" value="&lt;b&gt;word_3&lt;/b&gt;" style="rounded=0;whiteSpace=wrap;html=1;strokeWidth=2;fillColor=#fff2cc;strokeColor=#d6b656;" vertex="1" parent="1">
          <mxGeometry x="325" y="745" width="54" height="30" as="geometry" />
        </mxCell>
        <mxCell id="0h4L2-X7NALGhk6wRx9c-7" style="edgeStyle=orthogonalEdgeStyle;rounded=0;orthogonalLoop=1;jettySize=auto;html=1;entryX=0.908;entryY=0.994;entryDx=0;entryDy=0;entryPerimeter=0;" edge="1" parent="1" source="0h4L2-X7NALGhk6wRx9c-8" target="0h4L2-X7NALGhk6wRx9c-63">
          <mxGeometry relative="1" as="geometry">
            <mxPoint x="448.0000000000002" y="685" as="targetPoint" />
          </mxGeometry>
        </mxCell>
        <mxCell id="0h4L2-X7NALGhk6wRx9c-8" value="&lt;b&gt;word_n&lt;/b&gt;" style="rounded=0;whiteSpace=wrap;html=1;strokeWidth=2;fillColor=#fff2cc;strokeColor=#d6b656;" vertex="1" parent="1">
          <mxGeometry x="421" y="745" width="54" height="30" as="geometry" />
        </mxCell>
        <mxCell id="0h4L2-X7NALGhk6wRx9c-9" value="" style="endArrow=none;dashed=1;html=1;dashPattern=1 3;strokeWidth=3;fillColor=#fff2cc;strokeColor=#d6b656;endSize=12;startSize=12;" edge="1" parent="1">
          <mxGeometry width="50" height="50" relative="1" as="geometry">
            <mxPoint x="373" y="733" as="sourcePoint" />
            <mxPoint x="433" y="733" as="targetPoint" />
          </mxGeometry>
        </mxCell>
        <mxCell id="0h4L2-X7NALGhk6wRx9c-10" style="edgeStyle=orthogonalEdgeStyle;rounded=0;orthogonalLoop=1;jettySize=auto;html=1;entryX=0.039;entryY=0.994;entryDx=0;entryDy=0;entryPerimeter=0;" edge="1" parent="1" source="0h4L2-X7NALGhk6wRx9c-11" target="0h4L2-X7NALGhk6wRx9c-64">
          <mxGeometry relative="1" as="geometry">
            <mxPoint x="600" y="685" as="targetPoint" />
          </mxGeometry>
        </mxCell>
        <mxCell id="0h4L2-X7NALGhk6wRx9c-11" value="&lt;b&gt;word_1&lt;/b&gt;" style="rounded=0;whiteSpace=wrap;html=1;strokeWidth=2;fillColor=#fff2cc;strokeColor=#d6b656;" vertex="1" parent="1">
          <mxGeometry x="573" y="745" width="54" height="30" as="geometry" />
        </mxCell>
        <mxCell id="0h4L2-X7NALGhk6wRx9c-12" style="edgeStyle=orthogonalEdgeStyle;rounded=0;orthogonalLoop=1;jettySize=auto;html=1;entryX=0.311;entryY=1;entryDx=0;entryDy=0;entryPerimeter=0;" edge="1" parent="1" source="0h4L2-X7NALGhk6wRx9c-13" target="0h4L2-X7NALGhk6wRx9c-64">
          <mxGeometry relative="1" as="geometry">
            <mxPoint x="696" y="685" as="targetPoint" />
          </mxGeometry>
        </mxCell>
        <mxCell id="0h4L2-X7NALGhk6wRx9c-13" value="&lt;b&gt;word_2&lt;/b&gt;" style="rounded=0;whiteSpace=wrap;html=1;strokeWidth=2;fillColor=#fff2cc;strokeColor=#d6b656;" vertex="1" parent="1">
          <mxGeometry x="669" y="745" width="54" height="30" as="geometry" />
        </mxCell>
        <mxCell id="0h4L2-X7NALGhk6wRx9c-14" style="edgeStyle=orthogonalEdgeStyle;rounded=0;orthogonalLoop=1;jettySize=auto;html=1;entryX=0.586;entryY=1;entryDx=0;entryDy=0;entryPerimeter=0;" edge="1" parent="1" source="0h4L2-X7NALGhk6wRx9c-15" target="0h4L2-X7NALGhk6wRx9c-64">
          <mxGeometry relative="1" as="geometry">
            <mxPoint x="792" y="685" as="targetPoint" />
          </mxGeometry>
        </mxCell>
        <mxCell id="0h4L2-X7NALGhk6wRx9c-15" value="&lt;b&gt;word_3&lt;/b&gt;" style="rounded=0;whiteSpace=wrap;html=1;strokeWidth=2;fillColor=#fff2cc;strokeColor=#d6b656;" vertex="1" parent="1">
          <mxGeometry x="765" y="745" width="54" height="30" as="geometry" />
        </mxCell>
        <mxCell id="0h4L2-X7NALGhk6wRx9c-16" style="edgeStyle=orthogonalEdgeStyle;rounded=0;orthogonalLoop=1;jettySize=auto;html=1;entryX=0.914;entryY=1;entryDx=0;entryDy=0;entryPerimeter=0;" edge="1" parent="1" target="0h4L2-X7NALGhk6wRx9c-64">
          <mxGeometry relative="1" as="geometry">
            <mxPoint x="907" y="690" as="targetPoint" />
            <mxPoint x="908" y="745" as="sourcePoint" />
            <Array as="points">
              <mxPoint x="907" y="745" />
            </Array>
          </mxGeometry>
        </mxCell>
        <mxCell id="0h4L2-X7NALGhk6wRx9c-17" value="&lt;b&gt;partial&lt;br&gt;word_n&lt;/b&gt;" style="rounded=0;whiteSpace=wrap;html=1;strokeWidth=2;fillColor=#fff2cc;strokeColor=#d6b656;" vertex="1" parent="1">
          <mxGeometry x="861" y="745" width="94" height="31" as="geometry" />
        </mxCell>
        <mxCell id="0h4L2-X7NALGhk6wRx9c-18" value="" style="endArrow=none;dashed=1;html=1;dashPattern=1 3;strokeWidth=3;fillColor=#fff2cc;strokeColor=#d6b656;endSize=12;startSize=12;" edge="1" parent="1">
          <mxGeometry width="50" height="50" relative="1" as="geometry">
            <mxPoint x="813" y="733" as="sourcePoint" />
            <mxPoint x="895" y="733" as="targetPoint" />
          </mxGeometry>
        </mxCell>
        <mxCell id="0h4L2-X7NALGhk6wRx9c-19" value="LSTM" style="rounded=1;whiteSpace=wrap;html=1;fillColor=#d5e8d4;strokeColor=#82b366;" vertex="1" parent="1">
          <mxGeometry x="134" y="430" width="57" height="40" as="geometry" />
        </mxCell>
        <mxCell id="0h4L2-X7NALGhk6wRx9c-20" value="LSTM" style="rounded=1;whiteSpace=wrap;html=1;fillColor=#d5e8d4;strokeColor=#82b366;" vertex="1" parent="1">
          <mxGeometry x="221" y="430" width="57" height="40" as="geometry" />
        </mxCell>
        <mxCell id="0h4L2-X7NALGhk6wRx9c-21" value="LSTM" style="rounded=1;whiteSpace=wrap;html=1;fillColor=#d5e8d4;strokeColor=#82b366;" vertex="1" parent="1">
          <mxGeometry x="311.5" y="430" width="57" height="40" as="geometry" />
        </mxCell>
        <mxCell id="0h4L2-X7NALGhk6wRx9c-22" value="LSTM" style="rounded=1;whiteSpace=wrap;html=1;fillColor=#d5e8d4;strokeColor=#82b366;" vertex="1" parent="1">
          <mxGeometry x="426" y="430" width="57" height="40" as="geometry" />
        </mxCell>
        <mxCell id="0h4L2-X7NALGhk6wRx9c-27" value="LSTM" style="rounded=1;whiteSpace=wrap;html=1;fillColor=#d5e8d4;strokeColor=#82b366;" vertex="1" parent="1">
          <mxGeometry x="134" y="350" width="57" height="40" as="geometry" />
        </mxCell>
        <mxCell id="0h4L2-X7NALGhk6wRx9c-28" value="LSTM" style="rounded=1;whiteSpace=wrap;html=1;fillColor=#d5e8d4;strokeColor=#82b366;" vertex="1" parent="1">
          <mxGeometry x="221" y="350" width="57" height="40" as="geometry" />
        </mxCell>
        <mxCell id="0h4L2-X7NALGhk6wRx9c-29" value="LSTM" style="rounded=1;whiteSpace=wrap;html=1;fillColor=#d5e8d4;strokeColor=#82b366;" vertex="1" parent="1">
          <mxGeometry x="311.5" y="350" width="57" height="40" as="geometry" />
        </mxCell>
        <mxCell id="0h4L2-X7NALGhk6wRx9c-30" value="LSTM" style="rounded=1;whiteSpace=wrap;html=1;fillColor=#d5e8d4;strokeColor=#82b366;" vertex="1" parent="1">
          <mxGeometry x="426" y="350" width="57" height="40" as="geometry" />
        </mxCell>
        <mxCell id="0h4L2-X7NALGhk6wRx9c-35" value="" style="endArrow=classic;html=1;entryX=0.5;entryY=1;entryDx=0;entryDy=0;exitX=0.25;exitY=0;exitDx=0;exitDy=0;" edge="1" parent="1" target="0h4L2-X7NALGhk6wRx9c-27" source="0h4L2-X7NALGhk6wRx9c-78">
          <mxGeometry width="50" height="50" relative="1" as="geometry">
            <mxPoint x="162.21000000000004" y="430" as="sourcePoint" />
            <mxPoint x="162.20999999999998" y="400" as="targetPoint" />
            <Array as="points">
              <mxPoint x="110" y="460" />
            </Array>
          </mxGeometry>
        </mxCell>
        <mxCell id="0h4L2-X7NALGhk6wRx9c-36" value="" style="endArrow=classic;html=1;entryX=0.5;entryY=1;entryDx=0;entryDy=0;exitX=0.25;exitY=0;exitDx=0;exitDy=0;" edge="1" parent="1" source="0h4L2-X7NALGhk6wRx9c-79">
          <mxGeometry width="50" height="50" relative="1" as="geometry">
            <mxPoint x="249.26" y="430" as="sourcePoint" />
            <mxPoint x="249.54999999999995" y="390" as="targetPoint" />
            <Array as="points">
              <mxPoint x="200" y="450" />
            </Array>
          </mxGeometry>
        </mxCell>
        <mxCell id="0h4L2-X7NALGhk6wRx9c-37" value="" style="endArrow=classic;html=1;entryX=0.5;entryY=1;entryDx=0;entryDy=0;exitX=0.25;exitY=0;exitDx=0;exitDy=0;" edge="1" parent="1" source="0h4L2-X7NALGhk6wRx9c-80">
          <mxGeometry width="50" height="50" relative="1" as="geometry">
            <mxPoint x="339.76" y="430" as="sourcePoint" />
            <mxPoint x="340.04999999999995" y="390" as="targetPoint" />
            <Array as="points">
              <mxPoint x="290" y="450" />
            </Array>
          </mxGeometry>
        </mxCell>
        <mxCell id="0h4L2-X7NALGhk6wRx9c-38" value="" style="endArrow=classic;html=1;entryX=0.5;entryY=1;entryDx=0;entryDy=0;exitX=0.25;exitY=0;exitDx=0;exitDy=0;" edge="1" parent="1" source="0h4L2-X7NALGhk6wRx9c-81">
          <mxGeometry width="50" height="50" relative="1" as="geometry">
            <mxPoint x="454.26" y="430" as="sourcePoint" />
            <mxPoint x="454.54999999999995" y="390" as="targetPoint" />
            <Array as="points">
              <mxPoint x="390" y="450" />
            </Array>
          </mxGeometry>
        </mxCell>
        <mxCell id="0h4L2-X7NALGhk6wRx9c-44" value="" style="endArrow=none;dashed=1;html=1;dashPattern=1 3;strokeWidth=2;" edge="1" parent="1">
          <mxGeometry width="50" height="50" relative="1" as="geometry">
            <mxPoint x="394" y="449.5799999999999" as="sourcePoint" />
            <mxPoint x="424" y="449.9200000000001" as="targetPoint" />
          </mxGeometry>
        </mxCell>
        <mxCell id="0h4L2-X7NALGhk6wRx9c-45" value="" style="endArrow=classic;html=1;" edge="1" parent="1">
          <mxGeometry width="50" height="50" relative="1" as="geometry">
            <mxPoint x="191" y="449.5799999999999" as="sourcePoint" />
            <mxPoint x="221" y="450" as="targetPoint" />
          </mxGeometry>
        </mxCell>
        <mxCell id="0h4L2-X7NALGhk6wRx9c-46" value="" style="endArrow=classic;html=1;entryX=0;entryY=0.5;entryDx=0;entryDy=0;" edge="1" parent="1" target="0h4L2-X7NALGhk6wRx9c-21">
          <mxGeometry width="50" height="50" relative="1" as="geometry">
            <mxPoint x="278" y="449.78999999999996" as="sourcePoint" />
            <mxPoint x="308" y="450.21000000000004" as="targetPoint" />
          </mxGeometry>
        </mxCell>
        <mxCell id="0h4L2-X7NALGhk6wRx9c-47" value="" style="endArrow=classic;html=1;" edge="1" parent="1">
          <mxGeometry width="50" height="50" relative="1" as="geometry">
            <mxPoint x="368.5" y="449.8299999999999" as="sourcePoint" />
            <mxPoint x="391" y="450" as="targetPoint" />
          </mxGeometry>
        </mxCell>
        <mxCell id="0h4L2-X7NALGhk6wRx9c-48" value="" style="endArrow=classic;html=1;exitX=0;exitY=0.5;exitDx=0;exitDy=0;" edge="1" parent="1" source="0h4L2-X7NALGhk6wRx9c-30">
          <mxGeometry width="50" height="50" relative="1" as="geometry">
            <mxPoint x="403" y="369.87999999999994" as="sourcePoint" />
            <mxPoint x="403" y="370" as="targetPoint" />
          </mxGeometry>
        </mxCell>
        <mxCell id="0h4L2-X7NALGhk6wRx9c-49" value="" style="endArrow=none;dashed=1;html=1;dashPattern=1 3;strokeWidth=2;" edge="1" parent="1">
          <mxGeometry width="50" height="50" relative="1" as="geometry">
            <mxPoint x="373" y="369.8299999999999" as="sourcePoint" />
            <mxPoint x="403" y="370.1700000000001" as="targetPoint" />
          </mxGeometry>
        </mxCell>
        <mxCell id="0h4L2-X7NALGhk6wRx9c-50" value="" style="endArrow=classic;html=1;entryX=1;entryY=0.5;entryDx=0;entryDy=0;exitX=0;exitY=0.5;exitDx=0;exitDy=0;" edge="1" parent="1" source="0h4L2-X7NALGhk6wRx9c-28" target="0h4L2-X7NALGhk6wRx9c-27">
          <mxGeometry width="50" height="50" relative="1" as="geometry">
            <mxPoint x="220" y="370" as="sourcePoint" />
            <mxPoint x="210" y="340" as="targetPoint" />
          </mxGeometry>
        </mxCell>
        <mxCell id="0h4L2-X7NALGhk6wRx9c-51" value="" style="endArrow=classic;html=1;entryX=1;entryY=0.5;entryDx=0;entryDy=0;" edge="1" parent="1" target="0h4L2-X7NALGhk6wRx9c-28">
          <mxGeometry width="50" height="50" relative="1" as="geometry">
            <mxPoint x="311" y="370" as="sourcePoint" />
            <mxPoint x="300" y="340" as="targetPoint" />
          </mxGeometry>
        </mxCell>
        <mxCell id="0h4L2-X7NALGhk6wRx9c-59" value="&lt;b&gt;&lt;font style=&quot;font-size: 14px&quot;&gt;Dense and &lt;br&gt;Softmax Layer&lt;/font&gt;&lt;/b&gt;" style="rounded=1;whiteSpace=wrap;html=1;fillColor=#dae8fc;strokeColor=#6c8ebf;" vertex="1" parent="1">
          <mxGeometry x="478.25" y="90" width="120" height="60" as="geometry" />
        </mxCell>
        <mxCell id="0h4L2-X7NALGhk6wRx9c-61" value="&lt;font style=&quot;font-size: 18px&quot;&gt;&lt;b&gt;Word(N)&lt;/b&gt;&lt;/font&gt;" style="rounded=0;whiteSpace=wrap;html=1;fillColor=#e1d5e7;strokeColor=#9673a6;" vertex="1" parent="1">
          <mxGeometry x="488.25" y="10" width="101" height="40" as="geometry" />
        </mxCell>
        <mxCell id="0h4L2-X7NALGhk6wRx9c-62" value="" style="endArrow=classic;html=1;exitX=0.5;exitY=0;exitDx=0;exitDy=0;" edge="1" parent="1" source="0h4L2-X7NALGhk6wRx9c-59" target="0h4L2-X7NALGhk6wRx9c-61">
          <mxGeometry width="50" height="50" relative="1" as="geometry">
            <mxPoint x="145.75" y="70" as="sourcePoint" />
            <mxPoint x="520.75" y="20" as="targetPoint" />
            <Array as="points" />
          </mxGeometry>
        </mxCell>
        <mxCell id="0h4L2-X7NALGhk6wRx9c-63" value="Vocabulary Learner" style="rounded=1;whiteSpace=wrap;html=1;fillColor=#f8cecc;strokeColor=#b85450;" vertex="1" parent="1">
          <mxGeometry x="130" y="620" width="350" height="60" as="geometry" />
        </mxCell>
        <mxCell id="0h4L2-X7NALGhk6wRx9c-64" value="Vocabulary Learner" style="rounded=1;whiteSpace=wrap;html=1;fillColor=#f8cecc;strokeColor=#b85450;" vertex="1" parent="1">
          <mxGeometry x="587" y="620" width="350" height="60" as="geometry" />
        </mxCell>
        <mxCell id="0h4L2-X7NALGhk6wRx9c-65" style="edgeStyle=orthogonalEdgeStyle;rounded=0;orthogonalLoop=1;jettySize=auto;html=1;entryX=0.086;entryY=1.006;entryDx=0;entryDy=0;entryPerimeter=0;exitX=0.085;exitY=0.002;exitDx=0;exitDy=0;exitPerimeter=0;" edge="1" parent="1" source="0h4L2-X7NALGhk6wRx9c-63">
          <mxGeometry relative="1" as="geometry">
            <mxPoint x="160.0999999999999" y="550" as="targetPoint" />
            <mxPoint x="160" y="614.64" as="sourcePoint" />
            <Array as="points">
              <mxPoint x="160" y="600" />
              <mxPoint x="160" y="600" />
            </Array>
          </mxGeometry>
        </mxCell>
        <mxCell id="0h4L2-X7NALGhk6wRx9c-66" style="edgeStyle=orthogonalEdgeStyle;rounded=0;orthogonalLoop=1;jettySize=auto;html=1;entryX=0.086;entryY=1.006;entryDx=0;entryDy=0;entryPerimeter=0;exitX=0.085;exitY=0.002;exitDx=0;exitDy=0;exitPerimeter=0;" edge="1" parent="1">
          <mxGeometry relative="1" as="geometry">
            <mxPoint x="248.67000000000007" y="549.8800000000001" as="targetPoint" />
            <mxPoint x="248.31999999999994" y="620" as="sourcePoint" />
            <Array as="points">
              <mxPoint x="248.57" y="599.88" />
              <mxPoint x="248.57" y="599.88" />
            </Array>
          </mxGeometry>
        </mxCell>
        <mxCell id="0h4L2-X7NALGhk6wRx9c-67" style="edgeStyle=orthogonalEdgeStyle;rounded=0;orthogonalLoop=1;jettySize=auto;html=1;entryX=0.086;entryY=1.006;entryDx=0;entryDy=0;entryPerimeter=0;exitX=0.085;exitY=0.002;exitDx=0;exitDy=0;exitPerimeter=0;" edge="1" parent="1">
          <mxGeometry relative="1" as="geometry">
            <mxPoint x="339.1700000000001" y="550" as="targetPoint" />
            <mxPoint x="338.81999999999994" y="620.1199999999999" as="sourcePoint" />
            <Array as="points">
              <mxPoint x="339.07" y="600" />
              <mxPoint x="339.07" y="600" />
            </Array>
          </mxGeometry>
        </mxCell>
        <mxCell id="0h4L2-X7NALGhk6wRx9c-68" style="edgeStyle=orthogonalEdgeStyle;rounded=0;orthogonalLoop=1;jettySize=auto;html=1;entryX=0.086;entryY=1.006;entryDx=0;entryDy=0;entryPerimeter=0;exitX=0.085;exitY=0.002;exitDx=0;exitDy=0;exitPerimeter=0;" edge="1" parent="1">
          <mxGeometry relative="1" as="geometry">
            <mxPoint x="453.6700000000001" y="549.8800000000001" as="targetPoint" />
            <mxPoint x="453.31999999999994" y="620" as="sourcePoint" />
            <Array as="points">
              <mxPoint x="453.57" y="599.88" />
              <mxPoint x="453.57" y="599.88" />
            </Array>
          </mxGeometry>
        </mxCell>
        <mxCell id="0h4L2-X7NALGhk6wRx9c-69" style="edgeStyle=orthogonalEdgeStyle;rounded=0;orthogonalLoop=1;jettySize=auto;html=1;entryX=0.086;entryY=1.006;entryDx=0;entryDy=0;entryPerimeter=0;exitX=0.085;exitY=0.002;exitDx=0;exitDy=0;exitPerimeter=0;" edge="1" parent="1">
          <mxGeometry relative="1" as="geometry">
            <mxPoint x="615.5100000000002" y="550" as="targetPoint" />
            <mxPoint x="615.1599999999999" y="620.1199999999999" as="sourcePoint" />
            <Array as="points">
              <mxPoint x="615.41" y="600" />
              <mxPoint x="615.41" y="600" />
            </Array>
          </mxGeometry>
        </mxCell>
        <mxCell id="0h4L2-X7NALGhk6wRx9c-70" style="edgeStyle=orthogonalEdgeStyle;rounded=0;orthogonalLoop=1;jettySize=auto;html=1;entryX=0.086;entryY=1.006;entryDx=0;entryDy=0;entryPerimeter=0;exitX=0.085;exitY=0.002;exitDx=0;exitDy=0;exitPerimeter=0;" edge="1" parent="1">
          <mxGeometry relative="1" as="geometry">
            <mxPoint x="702.5100000000002" y="550" as="targetPoint" />
            <mxPoint x="702.1599999999999" y="620.1199999999999" as="sourcePoint" />
            <Array as="points">
              <mxPoint x="702.41" y="600" />
              <mxPoint x="702.41" y="600" />
            </Array>
          </mxGeometry>
        </mxCell>
        <mxCell id="0h4L2-X7NALGhk6wRx9c-71" style="edgeStyle=orthogonalEdgeStyle;rounded=0;orthogonalLoop=1;jettySize=auto;html=1;entryX=0.086;entryY=1.006;entryDx=0;entryDy=0;entryPerimeter=0;exitX=0.085;exitY=0.002;exitDx=0;exitDy=0;exitPerimeter=0;" edge="1" parent="1">
          <mxGeometry relative="1" as="geometry">
            <mxPoint x="792.0100000000002" y="550" as="targetPoint" />
            <mxPoint x="791.6599999999999" y="620.1199999999999" as="sourcePoint" />
            <Array as="points">
              <mxPoint x="791.91" y="600" />
              <mxPoint x="791.91" y="600" />
            </Array>
          </mxGeometry>
        </mxCell>
        <mxCell id="0h4L2-X7NALGhk6wRx9c-72" style="edgeStyle=orthogonalEdgeStyle;rounded=0;orthogonalLoop=1;jettySize=auto;html=1;entryX=0.086;entryY=1.006;entryDx=0;entryDy=0;entryPerimeter=0;exitX=0.085;exitY=0.002;exitDx=0;exitDy=0;exitPerimeter=0;" edge="1" parent="1">
          <mxGeometry relative="1" as="geometry">
            <mxPoint x="907.5100000000002" y="550" as="targetPoint" />
            <mxPoint x="907.1599999999999" y="620.1199999999999" as="sourcePoint" />
            <Array as="points">
              <mxPoint x="907.41" y="600" />
              <mxPoint x="907.41" y="600" />
            </Array>
          </mxGeometry>
        </mxCell>
        <mxCell id="0h4L2-X7NALGhk6wRx9c-73" value="" style="endArrow=classic;html=1;strokeWidth=1;entryX=0.483;entryY=1.002;entryDx=0;entryDy=0;entryPerimeter=0;" edge="1" parent="1" target="0h4L2-X7NALGhk6wRx9c-59">
          <mxGeometry width="50" height="50" relative="1" as="geometry">
            <mxPoint x="536.25" y="201" as="sourcePoint" />
            <mxPoint x="536.7760000000001" y="154.00299999999993" as="targetPoint" />
          </mxGeometry>
        </mxCell>
        <mxCell id="0h4L2-X7NALGhk6wRx9c-75" value="&lt;table border=&quot;1&quot; width=&quot;100%&quot; style=&quot;width: 100% ; height: 100% ; border-collapse: collapse&quot;&gt;&lt;tbody&gt;&lt;tr&gt;&lt;td align=&quot;center&quot;&gt;&lt;/td&gt;&lt;td align=&quot;center&quot;&gt;&lt;br&gt;&lt;/td&gt;&lt;td align=&quot;center&quot;&gt;&lt;/td&gt;&lt;td&gt;&lt;br&gt;&lt;/td&gt;&lt;/tr&gt;&lt;tr&gt;&lt;td align=&quot;center&quot;&gt;&lt;br&gt;&lt;/td&gt;&lt;td align=&quot;center&quot;&gt;&lt;/td&gt;&lt;td align=&quot;center&quot;&gt;&lt;/td&gt;&lt;td&gt;&lt;br&gt;&lt;/td&gt;&lt;/tr&gt;&lt;tr&gt;&lt;td align=&quot;center&quot;&gt;&lt;/td&gt;&lt;td align=&quot;center&quot;&gt;&lt;/td&gt;&lt;td align=&quot;center&quot;&gt;&lt;br&gt;&lt;/td&gt;&lt;td&gt;&lt;br&gt;&lt;/td&gt;&lt;/tr&gt;&lt;/tbody&gt;&lt;/table&gt;" style="text;html=1;strokeColor=#b85450;fillColor=#f8cecc;overflow=fill;strokeWidth=2;verticalAlign=bottom;" vertex="1" parent="1">
          <mxGeometry x="497.25" y="200" width="82" height="70" as="geometry" />
        </mxCell>
        <mxCell id="0h4L2-X7NALGhk6wRx9c-76" value="" style="strokeWidth=2;html=1;shape=mxgraph.flowchart.annotation_1;align=left;pointerEvents=1;fillColor=#ffffff;gradientColor=#ffffff;rotation=-180;" vertex="1" parent="1">
          <mxGeometry x="598.25" y="179.25" width="12" height="111.5" as="geometry" />
        </mxCell>
        <mxCell id="0h4L2-X7NALGhk6wRx9c-77" value="&lt;b&gt;Concatenation&lt;/b&gt;" style="text;html=1;strokeColor=none;fillColor=none;align=center;verticalAlign=middle;whiteSpace=wrap;rounded=0;" vertex="1" parent="1">
          <mxGeometry x="640.75" y="225" width="40" height="20" as="geometry" />
        </mxCell>
        <mxCell id="0h4L2-X7NALGhk6wRx9c-78" value="&lt;table border=&quot;1&quot; width=&quot;100%&quot; style=&quot;width: 100% ; height: 100% ; border-collapse: collapse&quot;&gt;&lt;tbody&gt;&lt;tr&gt;&lt;td align=&quot;center&quot;&gt;&lt;br&gt;&lt;/td&gt;&lt;td align=&quot;center&quot;&gt;&lt;br&gt;&lt;/td&gt;&lt;td align=&quot;center&quot;&gt;&lt;/td&gt;&lt;td&gt;&lt;br&gt;&lt;/td&gt;&lt;/tr&gt;&lt;/tbody&gt;&lt;/table&gt;" style="text;html=1;overflow=fill;fillColor=#e1d5e7;strokeWidth=2;strokeColor=#9673a6;" vertex="1" parent="1">
          <mxGeometry x="136.25" y="530" width="47.5" height="20" as="geometry" />
        </mxCell>
        <mxCell id="0h4L2-X7NALGhk6wRx9c-79" value="&lt;table border=&quot;1&quot; width=&quot;100%&quot; style=&quot;width: 100% ; height: 100% ; border-collapse: collapse&quot;&gt;&lt;tbody&gt;&lt;tr&gt;&lt;td align=&quot;center&quot;&gt;&lt;br&gt;&lt;/td&gt;&lt;td align=&quot;center&quot;&gt;&lt;br&gt;&lt;/td&gt;&lt;td align=&quot;center&quot;&gt;&lt;/td&gt;&lt;td&gt;&lt;br&gt;&lt;/td&gt;&lt;/tr&gt;&lt;/tbody&gt;&lt;/table&gt;" style="text;html=1;overflow=fill;fillColor=#e1d5e7;strokeWidth=2;strokeColor=#9673a6;" vertex="1" parent="1">
          <mxGeometry x="225.75" y="530" width="47.5" height="20" as="geometry" />
        </mxCell>
        <mxCell id="0h4L2-X7NALGhk6wRx9c-80" value="&lt;table border=&quot;1&quot; width=&quot;100%&quot; style=&quot;width: 100% ; height: 100% ; border-collapse: collapse&quot;&gt;&lt;tbody&gt;&lt;tr&gt;&lt;td align=&quot;center&quot;&gt;&lt;br&gt;&lt;/td&gt;&lt;td align=&quot;center&quot;&gt;&lt;br&gt;&lt;/td&gt;&lt;td align=&quot;center&quot;&gt;&lt;/td&gt;&lt;td&gt;&lt;br&gt;&lt;/td&gt;&lt;/tr&gt;&lt;/tbody&gt;&lt;/table&gt;" style="text;html=1;overflow=fill;fillColor=#e1d5e7;strokeWidth=2;strokeColor=#9673a6;" vertex="1" parent="1">
          <mxGeometry x="316.25" y="530" width="47.5" height="20" as="geometry" />
        </mxCell>
        <mxCell id="0h4L2-X7NALGhk6wRx9c-81" value="&lt;table border=&quot;1&quot; width=&quot;100%&quot; style=&quot;width: 100% ; height: 100% ; border-collapse: collapse&quot;&gt;&lt;tbody&gt;&lt;tr&gt;&lt;td align=&quot;center&quot;&gt;&lt;br&gt;&lt;/td&gt;&lt;td align=&quot;center&quot;&gt;&lt;br&gt;&lt;/td&gt;&lt;td align=&quot;center&quot;&gt;&lt;/td&gt;&lt;td&gt;&lt;br&gt;&lt;/td&gt;&lt;/tr&gt;&lt;/tbody&gt;&lt;/table&gt;" style="text;html=1;overflow=fill;fillColor=#e1d5e7;strokeWidth=2;strokeColor=#9673a6;" vertex="1" parent="1">
          <mxGeometry x="430.75" y="530" width="47.5" height="20" as="geometry" />
        </mxCell>
        <mxCell id="0h4L2-X7NALGhk6wRx9c-82" value="" style="endArrow=classic;html=1;entryX=0.451;entryY=0.996;entryDx=0;entryDy=0;entryPerimeter=0;" edge="1" parent="1" target="0h4L2-X7NALGhk6wRx9c-19">
          <mxGeometry width="50" height="50" relative="1" as="geometry">
            <mxPoint x="160" y="530" as="sourcePoint" />
            <mxPoint x="163" y="480" as="targetPoint" />
            <Array as="points" />
          </mxGeometry>
        </mxCell>
        <mxCell id="0h4L2-X7NALGhk6wRx9c-83" value="" style="endArrow=classic;html=1;entryX=0.451;entryY=0.996;entryDx=0;entryDy=0;entryPerimeter=0;" edge="1" parent="1">
          <mxGeometry width="50" height="50" relative="1" as="geometry">
            <mxPoint x="249.55" y="530.16" as="sourcePoint" />
            <mxPoint x="249.257" y="470.00000000000006" as="targetPoint" />
            <Array as="points" />
          </mxGeometry>
        </mxCell>
        <mxCell id="0h4L2-X7NALGhk6wRx9c-84" value="" style="endArrow=classic;html=1;entryX=0.451;entryY=0.996;entryDx=0;entryDy=0;entryPerimeter=0;" edge="1" parent="1">
          <mxGeometry width="50" height="50" relative="1" as="geometry">
            <mxPoint x="340.04999999999995" y="530" as="sourcePoint" />
            <mxPoint x="339.75700000000006" y="469.84" as="targetPoint" />
            <Array as="points" />
          </mxGeometry>
        </mxCell>
        <mxCell id="0h4L2-X7NALGhk6wRx9c-85" value="" style="endArrow=classic;html=1;entryX=0.451;entryY=0.996;entryDx=0;entryDy=0;entryPerimeter=0;" edge="1" parent="1">
          <mxGeometry width="50" height="50" relative="1" as="geometry">
            <mxPoint x="454.54999999999984" y="530" as="sourcePoint" />
            <mxPoint x="454.2570000000002" y="469.8399999999999" as="targetPoint" />
            <Array as="points" />
          </mxGeometry>
        </mxCell>
        <mxCell id="0h4L2-X7NALGhk6wRx9c-87" value="LSTM" style="rounded=1;whiteSpace=wrap;html=1;fillColor=#d5e8d4;strokeColor=#82b366;" vertex="1" parent="1">
          <mxGeometry x="589" y="430" width="57" height="40" as="geometry" />
        </mxCell>
        <mxCell id="0h4L2-X7NALGhk6wRx9c-88" value="LSTM" style="rounded=1;whiteSpace=wrap;html=1;fillColor=#d5e8d4;strokeColor=#82b366;" vertex="1" parent="1">
          <mxGeometry x="676" y="430" width="57" height="40" as="geometry" />
        </mxCell>
        <mxCell id="0h4L2-X7NALGhk6wRx9c-89" value="LSTM" style="rounded=1;whiteSpace=wrap;html=1;fillColor=#d5e8d4;strokeColor=#82b366;" vertex="1" parent="1">
          <mxGeometry x="766.5" y="430" width="57" height="40" as="geometry" />
        </mxCell>
        <mxCell id="0h4L2-X7NALGhk6wRx9c-90" value="LSTM" style="rounded=1;whiteSpace=wrap;html=1;fillColor=#d5e8d4;strokeColor=#82b366;" vertex="1" parent="1">
          <mxGeometry x="881" y="430" width="57" height="40" as="geometry" />
        </mxCell>
        <mxCell id="0h4L2-X7NALGhk6wRx9c-91" value="LSTM" style="rounded=1;whiteSpace=wrap;html=1;fillColor=#d5e8d4;strokeColor=#82b366;" vertex="1" parent="1">
          <mxGeometry x="589" y="350" width="57" height="40" as="geometry" />
        </mxCell>
        <mxCell id="0h4L2-X7NALGhk6wRx9c-92" value="LSTM" style="rounded=1;whiteSpace=wrap;html=1;fillColor=#d5e8d4;strokeColor=#82b366;" vertex="1" parent="1">
          <mxGeometry x="676" y="350" width="57" height="40" as="geometry" />
        </mxCell>
        <mxCell id="0h4L2-X7NALGhk6wRx9c-93" value="LSTM" style="rounded=1;whiteSpace=wrap;html=1;fillColor=#d5e8d4;strokeColor=#82b366;" vertex="1" parent="1">
          <mxGeometry x="766.5" y="350" width="57" height="40" as="geometry" />
        </mxCell>
        <mxCell id="0h4L2-X7NALGhk6wRx9c-94" value="LSTM" style="rounded=1;whiteSpace=wrap;html=1;fillColor=#d5e8d4;strokeColor=#82b366;" vertex="1" parent="1">
          <mxGeometry x="881" y="350" width="57" height="40" as="geometry" />
        </mxCell>
        <mxCell id="0h4L2-X7NALGhk6wRx9c-95" value="" style="endArrow=classic;html=1;entryX=0.5;entryY=1;entryDx=0;entryDy=0;exitX=0.25;exitY=0;exitDx=0;exitDy=0;" edge="1" source="0h4L2-X7NALGhk6wRx9c-107" target="0h4L2-X7NALGhk6wRx9c-91" parent="1">
          <mxGeometry width="50" height="50" relative="1" as="geometry">
            <mxPoint x="617.21" y="430" as="sourcePoint" />
            <mxPoint x="617.21" y="400" as="targetPoint" />
            <Array as="points">
              <mxPoint x="565" y="460" />
            </Array>
          </mxGeometry>
        </mxCell>
        <mxCell id="0h4L2-X7NALGhk6wRx9c-96" value="" style="endArrow=classic;html=1;entryX=0.5;entryY=1;entryDx=0;entryDy=0;exitX=0.25;exitY=0;exitDx=0;exitDy=0;" edge="1" source="0h4L2-X7NALGhk6wRx9c-108" parent="1">
          <mxGeometry width="50" height="50" relative="1" as="geometry">
            <mxPoint x="704.26" y="430" as="sourcePoint" />
            <mxPoint x="704.55" y="390" as="targetPoint" />
            <Array as="points">
              <mxPoint x="655" y="450" />
            </Array>
          </mxGeometry>
        </mxCell>
        <mxCell id="0h4L2-X7NALGhk6wRx9c-97" value="" style="endArrow=classic;html=1;entryX=0.5;entryY=1;entryDx=0;entryDy=0;exitX=0.25;exitY=0;exitDx=0;exitDy=0;" edge="1" source="0h4L2-X7NALGhk6wRx9c-109" parent="1">
          <mxGeometry width="50" height="50" relative="1" as="geometry">
            <mxPoint x="794.76" y="430" as="sourcePoint" />
            <mxPoint x="795.05" y="390" as="targetPoint" />
            <Array as="points">
              <mxPoint x="745" y="450" />
            </Array>
          </mxGeometry>
        </mxCell>
        <mxCell id="0h4L2-X7NALGhk6wRx9c-98" value="" style="endArrow=classic;html=1;entryX=0.5;entryY=1;entryDx=0;entryDy=0;exitX=0.25;exitY=0;exitDx=0;exitDy=0;" edge="1" source="0h4L2-X7NALGhk6wRx9c-110" parent="1">
          <mxGeometry width="50" height="50" relative="1" as="geometry">
            <mxPoint x="909.26" y="430" as="sourcePoint" />
            <mxPoint x="909.55" y="390" as="targetPoint" />
            <Array as="points">
              <mxPoint x="845" y="450" />
            </Array>
          </mxGeometry>
        </mxCell>
        <mxCell id="0h4L2-X7NALGhk6wRx9c-99" value="" style="endArrow=none;dashed=1;html=1;dashPattern=1 3;strokeWidth=2;" edge="1" parent="1">
          <mxGeometry width="50" height="50" relative="1" as="geometry">
            <mxPoint x="849" y="449.5799999999999" as="sourcePoint" />
            <mxPoint x="879" y="449.9200000000001" as="targetPoint" />
          </mxGeometry>
        </mxCell>
        <mxCell id="0h4L2-X7NALGhk6wRx9c-100" value="" style="endArrow=classic;html=1;" edge="1" parent="1">
          <mxGeometry width="50" height="50" relative="1" as="geometry">
            <mxPoint x="646" y="449.5799999999999" as="sourcePoint" />
            <mxPoint x="676" y="450" as="targetPoint" />
          </mxGeometry>
        </mxCell>
        <mxCell id="0h4L2-X7NALGhk6wRx9c-101" value="" style="endArrow=classic;html=1;entryX=0;entryY=0.5;entryDx=0;entryDy=0;" edge="1" target="0h4L2-X7NALGhk6wRx9c-89" parent="1">
          <mxGeometry width="50" height="50" relative="1" as="geometry">
            <mxPoint x="733" y="449.78999999999996" as="sourcePoint" />
            <mxPoint x="763" y="450.21000000000004" as="targetPoint" />
          </mxGeometry>
        </mxCell>
        <mxCell id="0h4L2-X7NALGhk6wRx9c-102" value="" style="endArrow=classic;html=1;" edge="1" parent="1">
          <mxGeometry width="50" height="50" relative="1" as="geometry">
            <mxPoint x="823.5" y="449.8299999999999" as="sourcePoint" />
            <mxPoint x="846" y="450" as="targetPoint" />
          </mxGeometry>
        </mxCell>
        <mxCell id="0h4L2-X7NALGhk6wRx9c-103" value="" style="endArrow=classic;html=1;exitX=0;exitY=0.5;exitDx=0;exitDy=0;" edge="1" source="0h4L2-X7NALGhk6wRx9c-94" parent="1">
          <mxGeometry width="50" height="50" relative="1" as="geometry">
            <mxPoint x="858" y="369.87999999999994" as="sourcePoint" />
            <mxPoint x="858" y="370" as="targetPoint" />
          </mxGeometry>
        </mxCell>
        <mxCell id="0h4L2-X7NALGhk6wRx9c-104" value="" style="endArrow=none;dashed=1;html=1;dashPattern=1 3;strokeWidth=2;" edge="1" parent="1">
          <mxGeometry width="50" height="50" relative="1" as="geometry">
            <mxPoint x="828" y="369.8299999999999" as="sourcePoint" />
            <mxPoint x="858" y="370.1700000000001" as="targetPoint" />
          </mxGeometry>
        </mxCell>
        <mxCell id="0h4L2-X7NALGhk6wRx9c-105" value="" style="endArrow=classic;html=1;entryX=1;entryY=0.5;entryDx=0;entryDy=0;exitX=0;exitY=0.5;exitDx=0;exitDy=0;" edge="1" source="0h4L2-X7NALGhk6wRx9c-92" target="0h4L2-X7NALGhk6wRx9c-91" parent="1">
          <mxGeometry width="50" height="50" relative="1" as="geometry">
            <mxPoint x="675" y="370" as="sourcePoint" />
            <mxPoint x="665" y="340" as="targetPoint" />
          </mxGeometry>
        </mxCell>
        <mxCell id="0h4L2-X7NALGhk6wRx9c-106" value="" style="endArrow=classic;html=1;entryX=1;entryY=0.5;entryDx=0;entryDy=0;" edge="1" target="0h4L2-X7NALGhk6wRx9c-92" parent="1">
          <mxGeometry width="50" height="50" relative="1" as="geometry">
            <mxPoint x="766" y="370" as="sourcePoint" />
            <mxPoint x="755" y="340" as="targetPoint" />
          </mxGeometry>
        </mxCell>
        <mxCell id="0h4L2-X7NALGhk6wRx9c-107" value="&lt;table border=&quot;1&quot; width=&quot;100%&quot; style=&quot;width: 100% ; height: 100% ; border-collapse: collapse&quot;&gt;&lt;tbody&gt;&lt;tr&gt;&lt;td align=&quot;center&quot;&gt;&lt;br&gt;&lt;/td&gt;&lt;td align=&quot;center&quot;&gt;&lt;br&gt;&lt;/td&gt;&lt;td align=&quot;center&quot;&gt;&lt;/td&gt;&lt;td&gt;&lt;br&gt;&lt;/td&gt;&lt;/tr&gt;&lt;/tbody&gt;&lt;/table&gt;" style="text;html=1;overflow=fill;fillColor=#e1d5e7;strokeWidth=2;strokeColor=#9673a6;" vertex="1" parent="1">
          <mxGeometry x="591.25" y="530" width="47.5" height="20" as="geometry" />
        </mxCell>
        <mxCell id="0h4L2-X7NALGhk6wRx9c-108" value="&lt;table border=&quot;1&quot; width=&quot;100%&quot; style=&quot;width: 100% ; height: 100% ; border-collapse: collapse&quot;&gt;&lt;tbody&gt;&lt;tr&gt;&lt;td align=&quot;center&quot;&gt;&lt;br&gt;&lt;/td&gt;&lt;td align=&quot;center&quot;&gt;&lt;br&gt;&lt;/td&gt;&lt;td align=&quot;center&quot;&gt;&lt;/td&gt;&lt;td&gt;&lt;br&gt;&lt;/td&gt;&lt;/tr&gt;&lt;/tbody&gt;&lt;/table&gt;" style="text;html=1;overflow=fill;fillColor=#e1d5e7;strokeWidth=2;strokeColor=#9673a6;" vertex="1" parent="1">
          <mxGeometry x="678.75" y="530" width="47.5" height="20" as="geometry" />
        </mxCell>
        <mxCell id="0h4L2-X7NALGhk6wRx9c-109" value="&lt;table border=&quot;1&quot; width=&quot;100%&quot; style=&quot;width: 100% ; height: 100% ; border-collapse: collapse&quot;&gt;&lt;tbody&gt;&lt;tr&gt;&lt;td align=&quot;center&quot;&gt;&lt;br&gt;&lt;/td&gt;&lt;td align=&quot;center&quot;&gt;&lt;br&gt;&lt;/td&gt;&lt;td align=&quot;center&quot;&gt;&lt;/td&gt;&lt;td&gt;&lt;br&gt;&lt;/td&gt;&lt;/tr&gt;&lt;/tbody&gt;&lt;/table&gt;" style="text;html=1;overflow=fill;fillColor=#e1d5e7;strokeWidth=2;strokeColor=#9673a6;" vertex="1" parent="1">
          <mxGeometry x="768.25" y="530" width="47.5" height="20" as="geometry" />
        </mxCell>
        <mxCell id="0h4L2-X7NALGhk6wRx9c-110" value="&lt;table border=&quot;1&quot; width=&quot;100%&quot; style=&quot;width: 100% ; height: 100% ; border-collapse: collapse&quot;&gt;&lt;tbody&gt;&lt;tr&gt;&lt;td align=&quot;center&quot;&gt;&lt;br&gt;&lt;/td&gt;&lt;td align=&quot;center&quot;&gt;&lt;br&gt;&lt;/td&gt;&lt;td align=&quot;center&quot;&gt;&lt;/td&gt;&lt;td&gt;&lt;br&gt;&lt;/td&gt;&lt;/tr&gt;&lt;/tbody&gt;&lt;/table&gt;" style="text;html=1;overflow=fill;fillColor=#e1d5e7;strokeWidth=2;strokeColor=#9673a6;" vertex="1" parent="1">
          <mxGeometry x="883.75" y="530" width="47.5" height="20" as="geometry" />
        </mxCell>
        <mxCell id="0h4L2-X7NALGhk6wRx9c-111" value="" style="endArrow=classic;html=1;entryX=0.451;entryY=0.996;entryDx=0;entryDy=0;entryPerimeter=0;" edge="1" parent="1">
          <mxGeometry width="50" height="50" relative="1" as="geometry">
            <mxPoint x="615" y="530" as="sourcePoint" />
            <mxPoint x="614.7069999999999" y="469.8399999999999" as="targetPoint" />
            <Array as="points" />
          </mxGeometry>
        </mxCell>
        <mxCell id="0h4L2-X7NALGhk6wRx9c-112" value="" style="endArrow=classic;html=1;entryX=0.451;entryY=0.996;entryDx=0;entryDy=0;entryPerimeter=0;" edge="1" parent="1">
          <mxGeometry width="50" height="50" relative="1" as="geometry">
            <mxPoint x="702.55" y="530.1599999999999" as="sourcePoint" />
            <mxPoint x="702.2570000000001" y="470" as="targetPoint" />
            <Array as="points" />
          </mxGeometry>
        </mxCell>
        <mxCell id="0h4L2-X7NALGhk6wRx9c-113" value="" style="endArrow=classic;html=1;entryX=0.451;entryY=0.996;entryDx=0;entryDy=0;entryPerimeter=0;" edge="1" parent="1">
          <mxGeometry width="50" height="50" relative="1" as="geometry">
            <mxPoint x="791.05" y="530" as="sourcePoint" />
            <mxPoint x="790.7570000000001" y="469.8399999999999" as="targetPoint" />
            <Array as="points" />
          </mxGeometry>
        </mxCell>
        <mxCell id="0h4L2-X7NALGhk6wRx9c-114" value="" style="endArrow=classic;html=1;entryX=0.451;entryY=0.996;entryDx=0;entryDy=0;entryPerimeter=0;" edge="1" parent="1">
          <mxGeometry width="50" height="50" relative="1" as="geometry">
            <mxPoint x="907.5499999999997" y="530" as="sourcePoint" />
            <mxPoint x="907.2570000000001" y="469.8399999999999" as="targetPoint" />
            <Array as="points" />
          </mxGeometry>
        </mxCell>
        <mxCell id="0h4L2-X7NALGhk6wRx9c-115" value="" style="endArrow=classic;html=1;entryX=0;entryY=1;entryDx=0;entryDy=0;" edge="1" parent="1" target="0h4L2-X7NALGhk6wRx9c-75">
          <mxGeometry width="50" height="50" relative="1" as="geometry">
            <mxPoint x="160" y="350" as="sourcePoint" />
            <mxPoint x="210" y="300" as="targetPoint" />
          </mxGeometry>
        </mxCell>
        <mxCell id="0h4L2-X7NALGhk6wRx9c-116" value="" style="endArrow=classic;html=1;" edge="1" parent="1">
          <mxGeometry width="50" height="50" relative="1" as="geometry">
            <mxPoint x="619" y="350" as="sourcePoint" />
            <mxPoint x="580" y="270" as="targetPoint" />
          </mxGeometry>
        </mxCell>
        <mxCell id="0h4L2-X7NALGhk6wRx9c-117" value="" style="strokeWidth=2;html=1;shape=mxgraph.flowchart.annotation_1;align=left;pointerEvents=1;fillColor=#ffffff;gradientColor=#ffffff;rotation=0;" vertex="1" parent="1">
          <mxGeometry x="90" y="426" width="18" height="51.5" as="geometry" />
        </mxCell>
        <mxCell id="0h4L2-X7NALGhk6wRx9c-118" value="&lt;b&gt;Forward LSTM&lt;/b&gt;" style="text;html=1;strokeColor=none;fillColor=none;align=center;verticalAlign=middle;whiteSpace=wrap;rounded=0;" vertex="1" parent="1">
          <mxGeometry x="40" y="440" width="40" height="20" as="geometry" />
        </mxCell>
        <mxCell id="0h4L2-X7NALGhk6wRx9c-119" value="" style="strokeWidth=2;html=1;shape=mxgraph.flowchart.annotation_1;align=left;pointerEvents=1;fillColor=#ffffff;gradientColor=#ffffff;rotation=0;" vertex="1" parent="1">
          <mxGeometry x="90" y="350" width="18" height="51.5" as="geometry" />
        </mxCell>
        <mxCell id="0h4L2-X7NALGhk6wRx9c-120" value="&lt;b&gt;Backward LSTM&lt;/b&gt;" style="text;html=1;strokeColor=none;fillColor=none;align=center;verticalAlign=middle;whiteSpace=wrap;rounded=0;" vertex="1" parent="1">
          <mxGeometry x="36" y="364" width="40" height="20" as="geometry" />
        </mxCell>
        <mxCell id="0h4L2-X7NALGhk6wRx9c-121" value="" style="endArrow=none;dashed=1;html=1;dashPattern=1 3;strokeWidth=2;" edge="1" parent="1">
          <mxGeometry width="50" height="50" relative="1" as="geometry">
            <mxPoint x="371" y="539.7099999999999" as="sourcePoint" />
            <mxPoint x="423" y="540" as="targetPoint" />
          </mxGeometry>
        </mxCell>
        <mxCell id="0h4L2-X7NALGhk6wRx9c-122" value="" style="endArrow=none;dashed=1;html=1;dashPattern=1 3;strokeWidth=2;" edge="1" parent="1">
          <mxGeometry width="50" height="50" relative="1" as="geometry">
            <mxPoint x="823.5" y="539.7099999999999" as="sourcePoint" />
            <mxPoint x="875.5" y="540" as="targetPoint" />
          </mxGeometry>
        </mxCell>
      </root>
    </mxGraphModel>
  </diagram>
</mxfile>
